<svg width="24" height="24" fill="none" xmlns="http://www.w3.org/2000/svg"><path d="M23 4H1v16h22V4Z" fill="#CFEDB5"/><path d="M18 18H6v-.5A2.5 2.5 0 0 0 3.5 15H3V9h.5A2.5 2.5 0 0 0 6 6.5V6h12v.5A2.5 2.5 0 0 0 20.5 9h.5v6h-.5a2.5 2.5 0 0 0-2.5 2.5v.5ZM6.96 17h10.07a3.5 3.5 0 0 1 2.96-2.96V9.97a3.5 3.5 0 0 1-2.96-2.96H6.96A3.5 3.5 0 0 1 4 9.97v4.07A3.5 3.5 0 0 1 6.96 17Z" fill="#458A46"/><path d="M15 15H9v1h6v-1Zm-3-1c-1.65 0-3-1.35-3-3s1.35-3 3-3 3 1.35 3 3-1.35 3-3 3Zm0-5c-1.1 0-2 .9-2 2s.9 2 2 2 2-.9 2-2-.9-2-2-2ZM3.75 7.5a.75.75 0 1 0 0-1.5.75.75 0 0 0 0 1.5Zm0 10.5a.75.75 0 1 0 0-1.5.75.75 0 0 0 0 1.5Zm16.5-10.5a.75.75 0 1 0 0-1.5.75.75 0 0 0 0 1.5Zm0 10.5a.75.75 0 1 0 0-1.5.75.75 0 0 0 0 1.5Z" fill="#458A46"/></svg>