<svg width="384" height="128" fill="none" xmlns="http://www.w3.org/2000/svg"><path fill="#07A35A" d="M0 0h384v128H0z"/><path fill="#fff" fill-opacity=".92" d="M0 0h384v128H0z"/><mask id="mask0" mask-type="alpha" maskUnits="userSpaceOnUse" x="0" y="0" width="384" height="128"><path fill="#07A35A" d="M0 0h384v128H0z"/><path fill="#fff" fill-opacity=".92" d="M0 0h384v128H0z"/></mask><g mask="url(#mask0)"><circle cx="192" cy="64" r="80" fill="#07A35A"/><circle cx="192" cy="64" r="80" fill="#fff" fill-opacity=".8"/><path fill="#fff" d="m296 57.699 33.829-12.313 6.156 16.915-33.829 12.312z"/><path fill-rule="evenodd" clip-rule="evenodd" d="M329.829 45.386 296 57.7l6.156 16.915L335.985 62.3l-6.156-16.915Zm-1.195 2.564-30.071 10.945 4.789 13.155 30.07-10.944-4.788-13.156Z" fill="#07A35A"/><path fill-rule="evenodd" clip-rule="evenodd" d="M329.829 45.386 296 57.7l6.156 16.915L335.985 62.3l-6.156-16.915Zm-1.195 2.564-30.071 10.945 4.789 13.155 30.07-10.944-4.788-13.156Z" fill="#fff" fill-opacity=".24"/><circle cx="315.993" cy="60" r="5" transform="rotate(-20 315.993 60)" fill="#07A35A"/><circle cx="315.993" cy="60" r="5" transform="rotate(-20 315.993 60)" fill="#fff" fill-opacity=".24"/><circle cx="306.596" cy="63.42" r="2" transform="rotate(-20 306.596 63.42)" fill="#07A35A"/><circle cx="306.596" cy="63.42" r="2" transform="rotate(-20 306.596 63.42)" fill="#fff" fill-opacity=".24"/><circle cx="299.204" cy="59.193" r="2.5" transform="rotate(-20 299.204 59.193)" fill="#07A35A"/><circle cx="299.204" cy="59.193" r="2.5" transform="rotate(-20 299.204 59.193)" fill="#fff" fill-opacity=".24"/><circle cx="303.651" cy="71.409" r="2.5" transform="rotate(-20 303.651 71.41)" fill="#07A35A"/><circle cx="303.651" cy="71.409" r="2.5" transform="rotate(-20 303.651 71.41)" fill="#fff" fill-opacity=".24"/><circle cx="332.781" cy="60.807" r="2.5" transform="rotate(-20 332.781 60.807)" fill="#07A35A"/><circle cx="332.781" cy="60.807" r="2.5" transform="rotate(-20 332.781 60.807)" fill="#fff" fill-opacity=".24"/><circle cx="328.335" cy="48.591" r="2.5" transform="rotate(-20 328.335 48.59)" fill="#07A35A"/><circle cx="328.335" cy="48.591" r="2.5" transform="rotate(-20 328.335 48.59)" fill="#fff" fill-opacity=".24"/><circle cx="325.39" cy="56.58" r="2" transform="rotate(-20 325.39 56.58)" fill="#07A35A"/><circle cx="325.39" cy="56.58" r="2" transform="rotate(-20 325.39 56.58)" fill="#fff" fill-opacity=".24"/><path fill="#fff" d="m93.808 77.397-35.863 3.138-1.569-17.931 35.863-3.138z"/><path fill-rule="evenodd" clip-rule="evenodd" d="m57.945 80.535 35.863-3.138-1.569-17.931-35.863 3.137 1.569 17.932Zm1.818-2.167L91.64 75.58l-1.22-13.947-31.878 2.79 1.22 13.946Z" fill="#07A35A"/><path fill-rule="evenodd" clip-rule="evenodd" d="m57.945 80.535 35.863-3.138-1.569-17.931-35.863 3.137 1.569 17.932Zm1.818-2.167L91.64 75.58l-1.22-13.947-31.878 2.79 1.22 13.946Z" fill="#fff" fill-opacity=".24"/><circle cx="75.092" cy="70" r="5" transform="rotate(175 75.092 70)" fill="#07A35A"/><circle cx="75.092" cy="70" r="5" transform="rotate(175 75.092 70)" fill="#fff" fill-opacity=".24"/><circle cx="85.054" cy="69.129" r="2" transform="rotate(175 85.054 69.129)" fill="#07A35A"/><circle cx="85.054" cy="69.129" r="2" transform="rotate(175 85.054 69.129)" fill="#fff" fill-opacity=".24"/><circle cx="91.1" cy="75.125" r="2.5" transform="rotate(175 91.1 75.125)" fill="#07A35A"/><circle cx="91.1" cy="75.125" r="2.5" transform="rotate(175 91.1 75.125)" fill="#fff" fill-opacity=".24"/><circle cx="89.966" cy="62.174" r="2.5" transform="rotate(175 89.966 62.174)" fill="#07A35A"/><circle cx="89.966" cy="62.174" r="2.5" transform="rotate(175 89.966 62.174)" fill="#fff" fill-opacity=".24"/><circle cx="59.084" cy="64.876" r="2.5" transform="rotate(175 59.084 64.876)" fill="#07A35A"/><circle cx="59.084" cy="64.876" r="2.5" transform="rotate(175 59.084 64.876)" fill="#fff" fill-opacity=".24"/><circle cx="60.217" cy="77.826" r="2.5" transform="rotate(175 60.217 77.826)" fill="#07A35A"/><circle cx="60.217" cy="77.826" r="2.5" transform="rotate(175 60.217 77.826)" fill="#fff" fill-opacity=".24"/><circle cx="65.13" cy="70.872" r="2" transform="rotate(175 65.13 70.872)" fill="#07A35A"/><circle cx="65.13" cy="70.872" r="2" transform="rotate(175 65.13 70.872)" fill="#fff" fill-opacity=".24"/><path fill="#fff" d="m251.79 10.624 27.578 23.14-11.57 13.79-27.577-23.141z"/><path fill-rule="evenodd" clip-rule="evenodd" d="m279.368 33.764-27.577-23.14-11.571 13.789 27.578 23.14 11.57-13.789Zm-2.818.247-24.513-20.57-8.999 10.725 24.513 20.57 8.999-10.725Z" fill="#07A35A"/><path fill-rule="evenodd" clip-rule="evenodd" d="m279.368 33.764-27.577-23.14-11.571 13.789 27.578 23.14 11.57-13.789Zm-2.818.247-24.513-20.57-8.999 10.725 24.513 20.57 8.999-10.725Z" fill="#fff" fill-opacity=".24"/><circle cx="259.794" cy="29.088" r="5" transform="rotate(40 259.794 29.088)" fill="#07A35A"/><circle cx="259.794" cy="29.088" r="5" transform="rotate(40 259.794 29.088)" fill="#fff" fill-opacity=".24"/><circle cx="252.134" cy="22.66" r="2" transform="rotate(40 252.134 22.66)" fill="#07A35A"/><circle cx="252.134" cy="22.66" r="2" transform="rotate(40 252.134 22.66)" fill="#fff" fill-opacity=".24"/><circle cx="252.099" cy="14.146" r="2.5" transform="rotate(40 252.099 14.146)" fill="#07A35A"/><circle cx="252.099" cy="14.146" r="2.5" transform="rotate(40 252.099 14.146)" fill="#fff" fill-opacity=".24"/><circle cx="243.742" cy="24.104" r="2.5" transform="rotate(40 243.742 24.104)" fill="#07A35A"/><circle cx="243.742" cy="24.104" r="2.5" transform="rotate(40 243.742 24.104)" fill="#fff" fill-opacity=".24"/><circle cx="267.49" cy="44.031" r="2.5" transform="rotate(40 267.49 44.03)" fill="#07A35A"/><circle cx="267.49" cy="44.031" r="2.5" transform="rotate(40 267.49 44.03)" fill="#fff" fill-opacity=".24"/><circle cx="275.846" cy="34.072" r="2.5" transform="rotate(40 275.846 34.072)" fill="#07A35A"/><circle cx="275.846" cy="34.072" r="2.5" transform="rotate(40 275.846 34.072)" fill="#fff" fill-opacity=".24"/><circle cx="267.455" cy="35.516" r="2" transform="rotate(40 267.455 35.516)" fill="#07A35A"/><circle cx="267.455" cy="35.516" r="2" transform="rotate(40 267.455 35.516)" fill="#fff" fill-opacity=".24"/><path fill="#fff" d="m249.156 83 33.829 12.313-6.156 16.914-33.83-12.313z"/><path fill-rule="evenodd" clip-rule="evenodd" d="M282.985 95.313 249.156 83 243 99.915l33.829 12.312 6.156-16.914Zm-2.563 1.195-30.07-10.945-4.789 13.156 30.071 10.945 4.788-13.156Z" fill="#07A35A"/><path fill-rule="evenodd" clip-rule="evenodd" d="M282.985 95.313 249.156 83 243 99.915l33.829 12.312 6.156-16.914Zm-2.563 1.195-30.07-10.945-4.789 13.156 30.071 10.945 4.788-13.156Z" fill="#fff" fill-opacity=".24"/><circle cx="262.993" cy="97.614" r="5" transform="rotate(20 262.993 97.614)" fill="#07A35A"/><circle cx="262.993" cy="97.614" r="5" transform="rotate(20 262.993 97.614)" fill="#fff" fill-opacity=".24"/><circle cx="253.596" cy="94.193" r="2" transform="rotate(20 253.596 94.193)" fill="#07A35A"/><circle cx="253.596" cy="94.193" r="2" transform="rotate(20 253.596 94.193)" fill="#fff" fill-opacity=".24"/><circle cx="250.651" cy="86.204" r="2.5" transform="rotate(20 250.651 86.204)" fill="#07A35A"/><circle cx="250.651" cy="86.204" r="2.5" transform="rotate(20 250.651 86.204)" fill="#fff" fill-opacity=".24"/><circle cx="246.204" cy="98.42" r="2.5" transform="rotate(20 246.204 98.42)" fill="#07A35A"/><circle cx="246.204" cy="98.42" r="2.5" transform="rotate(20 246.204 98.42)" fill="#fff" fill-opacity=".24"/><circle cx="275.335" cy="109.023" r="2.5" transform="rotate(20 275.335 109.023)" fill="#07A35A"/><circle cx="275.335" cy="109.023" r="2.5" transform="rotate(20 275.335 109.023)" fill="#fff" fill-opacity=".24"/><circle cx="279.781" cy="96.807" r="2.5" transform="rotate(20 279.781 96.807)" fill="#07A35A"/><circle cx="279.781" cy="96.807" r="2.5" transform="rotate(20 279.781 96.807)" fill="#fff" fill-opacity=".24"/><circle cx="272.39" cy="101.034" r="2" transform="rotate(20 272.39 101.034)" fill="#07A35A"/><circle cx="272.39" cy="101.034" r="2" transform="rotate(20 272.39 101.034)" fill="#fff" fill-opacity=".24"/><path fill="#fff" d="M110 101.578 133.14 74l13.79 11.57-23.141 27.578z"/><path fill-rule="evenodd" clip-rule="evenodd" d="M133.14 74 110 101.578l13.789 11.57 23.14-27.578L133.14 74Zm.247 2.818-20.569 24.513 10.724 8.999 20.569-24.513-10.724-9Z" fill="#07A35A"/><path fill-rule="evenodd" clip-rule="evenodd" d="M133.14 74 110 101.578l13.789 11.57 23.14-27.578L133.14 74Zm.247 2.818-20.569 24.513 10.724 8.999 20.569-24.513-10.724-9Z" fill="#fff" fill-opacity=".24"/><circle cx="128.465" cy="93.574" r="5" transform="rotate(-50 128.465 93.574)" fill="#07A35A"/><circle cx="128.465" cy="93.574" r="5" transform="rotate(-50 128.465 93.574)" fill="#fff" fill-opacity=".24"/><circle cx="122.037" cy="101.234" r="2" transform="rotate(-50 122.037 101.234)" fill="#07A35A"/><circle cx="122.037" cy="101.234" r="2" transform="rotate(-50 122.037 101.234)" fill="#fff" fill-opacity=".24"/><circle cx="113.522" cy="101.269" r="2.5" transform="rotate(-50 113.522 101.269)" fill="#07A35A"/><circle cx="113.522" cy="101.269" r="2.5" transform="rotate(-50 113.522 101.269)" fill="#fff" fill-opacity=".24"/><circle cx="123.481" cy="109.626" r="2.5" transform="rotate(-50 123.481 109.626)" fill="#07A35A"/><circle cx="123.481" cy="109.626" r="2.5" transform="rotate(-50 123.481 109.626)" fill="#fff" fill-opacity=".24"/><circle cx="143.407" cy="85.878" r="2.5" transform="rotate(-50 143.407 85.878)" fill="#07A35A"/><circle cx="143.407" cy="85.878" r="2.5" transform="rotate(-50 143.407 85.878)" fill="#fff" fill-opacity=".24"/><circle cx="133.449" cy="77.522" r="2.5" transform="rotate(-50 133.449 77.522)" fill="#07A35A"/><circle cx="133.449" cy="77.522" r="2.5" transform="rotate(-50 133.449 77.522)" fill="#fff" fill-opacity=".24"/><circle cx="134.892" cy="85.913" r="2" transform="rotate(-50 134.892 85.913)" fill="#07A35A"/><circle cx="134.892" cy="85.913" r="2" transform="rotate(-50 134.892 85.913)" fill="#fff" fill-opacity=".24"/><path fill="#fff" d="m138.628 35.563-35.453-6.252 3.126-17.726 35.453 6.251z"/><path fill-rule="evenodd" clip-rule="evenodd" d="m103.175 29.31 35.453 6.252 3.126-17.726-35.453-6.252-3.126 17.727Zm2.317-1.621 31.514 5.556 2.431-13.787-31.514-5.557-2.431 13.788Z" fill="#07A35A"/><path fill-rule="evenodd" clip-rule="evenodd" d="m103.175 29.31 35.453 6.252 3.126-17.726-35.453-6.252-3.126 17.727Zm2.317-1.621 31.514 5.556 2.431-13.787-31.514-5.557-2.431 13.788Z" fill="#fff" fill-opacity=".24"/><circle cx="122.465" cy="23.573" r="5" transform="rotate(-170 122.465 23.573)" fill="#07A35A"/><circle cx="122.465" cy="23.573" r="5" transform="rotate(-170 122.465 23.573)" fill="#fff" fill-opacity=".24"/><circle cx="132.313" cy="25.31" r="2" transform="rotate(-170 132.313 25.31)" fill="#07A35A"/><circle cx="132.313" cy="25.31" r="2" transform="rotate(-170 132.313 25.31)" fill="#fff" fill-opacity=".24"/><circle cx="136.6" cy="32.666" r="2.5" transform="rotate(-170 136.6 32.666)" fill="#07A35A"/><circle cx="136.6" cy="32.666" r="2.5" transform="rotate(-170 136.6 32.666)" fill="#fff" fill-opacity=".24"/><circle cx="138.858" cy="19.864" r="2.5" transform="rotate(-170 138.858 19.864)" fill="#07A35A"/><circle cx="138.858" cy="19.864" r="2.5" transform="rotate(-170 138.858 19.864)" fill="#fff" fill-opacity=".24"/><circle cx="108.329" cy="14.481" r="2.5" transform="rotate(-170 108.329 14.48)" fill="#07A35A"/><circle cx="108.329" cy="14.481" r="2.5" transform="rotate(-170 108.329 14.48)" fill="#fff" fill-opacity=".24"/><circle cx="106.071" cy="27.283" r="2.5" transform="rotate(-170 106.071 27.283)" fill="#07A35A"/><circle cx="106.071" cy="27.283" r="2.5" transform="rotate(-170 106.071 27.283)" fill="#fff" fill-opacity=".24"/><circle cx="112.617" cy="21.837" r="2" transform="rotate(-170 112.617 21.837)" fill="#07A35A"/><circle cx="112.617" cy="21.837" r="2" transform="rotate(-170 112.617 21.837)" fill="#fff" fill-opacity=".24"/></g><path d="M216 40h-18.177v18.122H216V40Z" fill="#47B275"/><path d="M216 58.123h-48V88h48V58.123Z" fill="#07A35A"/><path d="M216 58.123h-48V88h48V58.123Z" fill="#000" fill-opacity=".6"/><path d="M197.823 58.123h-11.592V88h11.592V58.123ZM186.177 40H168v18.122h18.177V40Z" fill="#47B275"/><path d="M186.231 56.163h-13.496a2.73 2.73 0 0 0-2.721-2.721V44.68a2.73 2.73 0 0 0 2.721-2.721h13.496v14.204Z" fill="#fff"/><path d="M186.232 44.844v8.435c-1.578-.762-2.667-2.34-2.667-4.19a4.732 4.732 0 0 1 2.667-4.245Z" fill="#47B275"/><path d="M197.823 56.163h13.497a2.728 2.728 0 0 1 2.721-2.721V44.68a2.729 2.729 0 0 1-2.721-2.721h-13.497v14.204Z" fill="#fff"/><path d="M177.633 51.212a2.122 2.122 0 1 0 0-4.245 2.122 2.122 0 0 0 0 4.245Zm20.19 2.067v-8.435c1.578.762 2.667 2.34 2.667 4.19a4.733 4.733 0 0 1-2.667 4.245Zm8.599-2.067a2.122 2.122 0 1 0 0-4.245 2.122 2.122 0 0 0 0 4.245Z" fill="#47B275"/><path d="M197.878 40h-11.647v18.122h11.647V40Z" fill="#AEDDC2"/></svg>